<?xml version="1.0" encoding="UTF-8" standalone="no"?><!-- Generator: Gravit.io --><svg xmlns="http://www.w3.org/2000/svg" xmlns:xlink="http://www.w3.org/1999/xlink" style="isolation:isolate" viewBox="0 0 64 64" width="64pt" height="64pt"><defs><clipPath id="_clipPath_Tphr91UwX6A4SSQWNKwLKDi5NqEmyD4G"><rect width="64" height="64"/></clipPath></defs><g clip-path="url(#_clipPath_Tphr91UwX6A4SSQWNKwLKDi5NqEmyD4G)"><g><circle vector-effect="non-scaling-stroke" cx="32" cy="32" r="27.000255499999994" fill="rgb(228,228,228)"/><path d=" M 32 11.75 C 20.816 11.75 11.75 20.816 11.75 32 C 11.75 43.184 20.816 52.25 32 52.25 C 35.488 52.246 38.916 51.342 41.951 49.624 L 37.716 45.69 C 35.906 46.451 33.963 46.845 32 46.85 C 23.798 46.85 17.15 40.202 17.15 32 C 17.15 23.798 23.798 17.15 32 17.15 C 34.051 17.153 36.079 17.582 37.956 18.408 L 41.964 14.4 C 38.927 12.671 35.494 11.759 32 11.75 Z " fill="rgb(3,156,244)"/><circle vector-effect="non-scaling-stroke" cx="32" cy="32" r="3.3750319374999975" fill="rgb(63,63,63)"/><mask id="_mask_uERYYijBaL90YZCt8SFBGkLHCdiDKG05" x="-200%" y="-200%" width="400%" height="400%"><rect x="-200%" y="-200%" width="400%" height="400%" style="fill:white;"/><path d=" M 36.725 27.275 L 46.175 17.825 L 46.175 17.825 L 46.175 17.825" fill="black" stroke="none"/></mask><path d=" M 36.725 27.275 L 46.175 17.825 L 46.175 17.825 L 46.175 17.825" fill="none"/><path d=" M 36.725 27.275 L 46.175 17.825 L 46.175 17.825 L 46.175 17.825" fill="none" mask="url(#_mask_uERYYijBaL90YZCt8SFBGkLHCdiDKG05)" vector-effect="non-scaling-stroke" stroke-width="2" stroke="rgb(63,63,63)" stroke-linejoin="miter" stroke-linecap="butt" stroke-miterlimit="4"/><mask id="_mask_Vz6OxJDMPXAqehKtnZi9BJlsTEKv618w" x="-200%" y="-200%" width="400%" height="400%"><rect x="-200%" y="-200%" width="400%" height="400%" style="fill:white;"/><line x1="36.725" y1="37.4" x2="46.175" y2="46.175" fill="black" stroke="none"/></mask><line x1="36.725" y1="37.4" x2="46.175" y2="46.175" mask="url(#_mask_Vz6OxJDMPXAqehKtnZi9BJlsTEKv618w)" vector-effect="non-scaling-stroke" stroke-width="2" stroke="rgb(63,63,63)" stroke-linejoin="miter" stroke-linecap="butt" stroke-miterlimit="4"/></g></g></svg>