<?xml version="1.0" encoding="UTF-8" standalone="no"?><!-- Generator: Gravit.io --><svg xmlns="http://www.w3.org/2000/svg" xmlns:xlink="http://www.w3.org/1999/xlink" style="isolation:isolate" viewBox="0 0 64 64" width="64pt" height="64pt"><defs><clipPath id="_clipPath_0akgxVgKpnCcLzExXfdBNwtiySrydjMg"><rect width="64" height="64"/></clipPath></defs><g clip-path="url(#_clipPath_0akgxVgKpnCcLzExXfdBNwtiySrydjMg)"><g><g><path d="M 10.039 6 L 53.961 6 C 55.086 6 56 6.914 56 8.039 L 56 55.961 C 56 57.086 55.086 58 53.961 58 L 10.039 58 C 8.914 58 8 57.086 8 55.961 L 8 8.039 C 8 6.914 8.914 6 10.039 6 Z" style="stroke:none;fill:#544944;stroke-miterlimit:10;"/><path d=" M 10.001 6.002 C 9.47 6 8.959 6.218 8.583 6.608 C 8.207 6.999 7.997 7.529 7.998 8.081 L 7.998 55.919 C 7.998 57.074 8.893 58.002 10.001 58.002 L 32.334 58.002 C 42.715 54.491 51.266 46.721 56.002 36.493 L 56.002 8.081 C 56.004 7.528 55.794 6.997 55.418 6.606 C 55.042 6.215 54.531 5.996 53.999 5.998 L 10.001 6.002 Z " fill="rgb(242,186,119)"/><g opacity="0.48"><path d=" M 10.001 6.002 C 9.47 6 8.959 6.218 8.583 6.608 C 8.207 6.999 7.997 7.529 7.998 8.081 L 7.998 27.912 C 13.574 41.123 26.127 49.662 40 49.681 C 45.567 49.678 51.053 48.294 56.002 45.644 L 56.002 8.081 C 56.004 7.528 55.794 6.997 55.418 6.606 C 55.042 6.215 54.531 5.996 53.999 5.998 L 10.001 6.002 Z " fill="rgb(242,154,119)"/></g></g><path d=" M 20.002 11.002 C 20.002 17.629 25.374 23.002 32.002 23.002 C 35.185 23.002 38.237 21.738 40.487 19.487 C 42.738 17.237 44.002 14.185 44.002 11.002 L 41.001 11.002 C 41.001 15.972 36.972 20.001 32.002 20.001 C 29.614 20.002 27.325 19.054 25.636 17.367 C 23.948 15.679 22.999 13.389 22.999 11.002 L 20.002 11.002 Z " fill="rgb(255,255,255)"/></g><g><g><path d=" M 26.996 43.613 Q 25.872 42.785 24.997 41.028 Q 24.59 40.166 24.507 39.391 Q 23.231 39.609 21.779 40.486 L 21.647 40.739 Q 22.337 42.493 23.612 44.405 Q 23.975 45.084 24.428 45.424 Q 24.812 45.426 25.306 45.019 Q 26.296 44.355 26.996 43.613 Z " fill="rgb(232,232,231)"/><path d=" M 31.981 33.256 L 31.808 33.306 L 31.097 32.731 Q 26.605 31.277 26.325 31.292 C 26.044 31.307 23.726 31.964 22.552 32.46 L 13.507 35.61 C 13.448 35.676 13.501 35.76 13.548 35.814 L 13.548 35.814 L 21.296 35.711 Q 23.528 35.64 23.682 35.641 C 24.331 35.644 24.75 35.883 24.999 36.479 L 24.999 36.479 Q 25.634 38.245 25.696 38.453 L 26.289 37.882 L 27.568 36.815 L 31.981 33.256 Z  M 35.948 40.214 L 28.505 43.121 L 28.557 43.167 Q 29.321 43.9 29.966 45.082 Q 30.086 45.531 29.907 45.899 L 24.554 54.877 C 24.577 54.945 24.624 55.032 24.71 55.014 L 24.71 55.014 L 31.961 48.756 L 33.994 47.026 C 34.528 46.679 34.981 46.17 35.01 45.505 L 35.01 45.505 L 36.046 41.041 C 36.054 40.723 35.957 40.508 35.864 40.287 L 35.864 40.287 L 35.948 40.214 Z " fill-rule="evenodd" fill="rgb(232,232,231)"/><path d=" M 50.448 27.344 C 50.634 26.997 50.458 26.874 49.89 26.945 Q 42.467 27.358 33.91 31.915 Q 31.751 33.275 30.102 34.771 Q 27.435 36.829 25.089 38.941 C 24.922 39.16 24.71 39.291 24.507 39.391 Q 24.644 40.677 25.676 42.203 Q 26.291 43.134 27.025 43.621 Q 27.403 43.346 27.705 43.355 L 28.687 43.041 L 33.477 41.185 Q 36.142 40.323 39.021 38.667 Q 46.816 33.727 50.448 27.344 Z " fill="rgb(253,253,253)"/><path d=" M 33.815 40.283 C 33.144 39.355 32.62 38.538 32.056 37.542 C 31.493 36.546 31.212 35.972 30.817 35.091 Q 30.197 35.437 29.979 35.827 Q 30.194 36.393 31.172 38.107 C 32.15 39.821 32.783 40.679 32.907 40.68 L 33.815 40.283 Z  M 31.631 41.139 C 30.989 40.257 30.492 39.477 29.964 38.521 C 29.437 37.566 29.313 37.284 29.005 36.591 L 28.161 37.23 C 28.177 37.275 28.246 37.774 28.964 39 Q 29.523 39.954 30.664 41.521 L 31.631 41.139 Z " fill-rule="evenodd" fill="rgb(242,186,119)"/><g opacity="0.73"><path d=" M 44.604 28.156 C 45.777 27.539 46.351 28.182 46.903 29.138 C 47.455 30.094 47.785 30.977 46.604 31.62 C 45.422 32.263 44.857 31.594 44.305 30.638 C 43.753 29.682 43.43 28.772 44.604 28.156 Z " fill="rgb(101,181,197)"/></g></g></g></g></svg>