<?xml version="1.0" encoding="UTF-8" standalone="no"?><!-- Generator: Gravit.io --><svg xmlns="http://www.w3.org/2000/svg" xmlns:xlink="http://www.w3.org/1999/xlink" style="isolation:isolate" viewBox="0 0 64 64" width="64pt" height="64pt"><defs><clipPath id="_clipPath_QPbAdftXlfUBRxqLnRrZugJDtq0sfHam"><rect width="64" height="64"/></clipPath></defs><g clip-path="url(#_clipPath_QPbAdftXlfUBRxqLnRrZugJDtq0sfHam)"><g><path d="M 8.34 6 L 55.66 6 C 56.951 6 58 7.049 58 8.34 L 58 55.66 C 58 56.951 56.951 58 55.66 58 L 8.34 58 C 7.049 58 6 56.951 6 55.66 L 6 8.34 C 6 7.049 7.049 6 8.34 6 Z" style="stroke:none;fill:#FAFAFA;stroke-miterlimit:10;"/><g><g style="mix-blend-mode:normal;" opacity="0.194"><path d="M 13.8 24.2 L 50.2 24.2 C 50.917 24.2 51.5 24.783 51.5 25.5 L 51.5 25.5 C 51.5 26.217 50.917 26.8 50.2 26.8 L 13.8 26.8 C 13.083 26.8 12.5 26.217 12.5 25.5 L 12.5 25.5 C 12.5 24.783 13.083 24.2 13.8 24.2 Z" style="stroke:none;fill:#000000;stroke-miterlimit:10;"/></g><path d=" M 13.75 24.184 C 13.026 24.184 12.443 24.767 12.443 25.492 C 12.443 26.216 13.026 26.799 13.75 26.799 L 41.123 26.799 L 41.123 24.184 L 13.75 24.184 Z " fill-rule="evenodd" fill="rgb(61,174,233)"/><circle vector-effect="non-scaling-stroke" cx="42.3636" cy="25.42070000000001" r="3.7856000000000023" fill="rgb(64,68,72)"/><g style="mix-blend-mode:normal;" opacity="0.194"><path d="M 13.8 37.2 L 50.2 37.2 C 50.917 37.2 51.5 37.783 51.5 38.5 L 51.5 38.5 C 51.5 39.217 50.917 39.8 50.2 39.8 L 13.8 39.8 C 13.083 39.8 12.5 39.217 12.5 38.5 L 12.5 38.5 C 12.5 37.783 13.083 37.2 13.8 37.2 Z" style="stroke:none;fill:#000000;stroke-miterlimit:10;"/></g><path d=" M 13.75 37.184 C 13.026 37.184 12.443 37.767 12.443 38.492 C 12.443 39.216 13.026 39.799 13.75 39.799 L 28.123 39.799 L 28.123 37.184 L 13.75 37.184 Z " fill-rule="evenodd" fill="rgb(61,174,233)"/><circle vector-effect="non-scaling-stroke" cx="26.763600000000004" cy="38.42070000000001" r="3.7855999999999987" fill="rgb(64,68,72)"/></g></g></g></svg>